<svg xmlns="http://www.w3.org/2000/svg" xmlns:xlink="http://www.w3.org/1999/xlink" width="144" height="123" viewBox="0 0 144 123">
    <defs>
        <path id="2cg4gf5qda" d="M0 0L44.16 0 44.16 100.115 0 100.115z"/>
    </defs>
    <g fill="none" fill-rule="evenodd">
        <g>
            <g>
                <path fill="#FC2929" d="M104.619 112.054l.026-.042-.028.042c-.478-.328-1.17-.48-1.848-.48-1.537 0-2.634.76-3.357 1.828-.717 1.07-1.056 2.45-1.056 3.679 0 .887.133 1.714.674 2.461.267.365.912 1.24 3 1.244 1.449-.001 2.135-.377 2.507-.595l.063-.083c.073-.318.317-1.761.417-2.124l-.076-.057c-.732.581-1.531 1.005-2.439 1.005-.609 0-1.071-.144-1.383-.423-.312-.277-.464-.686-.464-1.193 0-.187.015-.357.03-.544l.004-.043.043-.002c1.418-.037 2.142-.056 3.33-.056.388 0 .826.002 1.355.006l.091-.064c.118-.55.247-1.18.247-1.956 0-.688-.074-1.911-1.136-2.603zm-.94 3.015l-.008.04-1.39.017-1.375.019.012-.046.007-.02c.028-.097.057-.203.092-.311.095-.303.23-.633.47-.936.042-.051.085-.104.133-.153.426-.466.83-.539 1.09-.539.37 0 .639.148.811.367.03.038.055.076.079.119.085.146.138.312.157.486.008.061.012.127.012.19 0 .26-.045.516-.09.767zm-5.4-1.566l-.094.093-1.37-.035-.634 2.987c-.087.374-.281 1.31-.281 1.61-.002.282.104.474.252.587.147.116.33.153.494.154.381 0 .514-.106.768-.203l.045.041-.337 1.721-.115.113c-.469.1-.818.18-1.311.18-1.274-.007-2.193-.434-2.199-1.92 0-.695.28-1.96.49-2.9l.506-2.372-1.076.037-.064-.093.313-1.671.098-.055h1.092l.438-2.2.084-.096c1.094-.28 1.41-.415 2.406-.743l.053.06-.33 1.417-.342 1.596 1.403-.042.036.073-.325 1.66zm16.888-2.82l-.076.085-3.614-.01-.587 3.017 3.162-.095.047.075c-.26.867-.321 1.112-.496 1.868l-.08.077-3.007-.007-.395 2.092-.5 2.719-.068.062-2.59.067-.03-.067.448-2.314.687-3.266c.518-2.538.666-3.349 1.156-6.114l.078-.075h3.784l2.403-.063.046.063-.368 1.887zm5.104 1.469c-.502-.355-1.305-.537-2.406-.537-.543 0-1.091.052-1.641.157-.492.093-.797.173-1.057.248l-.072.072-.357 1.83.116.07c.229-.106.565-.236 1.009-.393.454-.16.871-.24 1.249-.24.552 0 .972.075 1.258.231.295.159.506.507.504.89 0 .094-.007.177-.02.252-.015.07-.024.122-.027.152l-.006.04s-.178.012-.368.028c-.125.012-.284.03-.468.051-.302.033-.65.075-.952.127-.727.12-2.77.439-3.383 1.808-.643 1.123-.534 2.61.098 3.335.223.256.562.497 1.021.59v.002c.02.006.09.015.105.019 1.768.273 3.035-1.267 3.035-1.267l-.19.95.078.066 1.986-.067.082-.072 1.17-5.872c.024-.124.043-.27.058-.437.013-.169.022-.305.022-.406-.002-.751-.342-1.273-.844-1.627zm-2.045 5.871s-.474.746-1.158 1.013c-.686.266-1.18.056-1.375-.21-.156-.207-.481-.863.137-1.6.625-.744 2.695-.792 2.695-.792l-.299 1.589zm9.64-6.527l-.486 2.525-.101.104c-.139-.026-.316-.047-.525-.047-.656 0-1.588.21-2.317 1.178l-.008.008-1.004 5.24-.071.062-2.181.066-.056-.057 1.715-8.798.093-.092 2.16-.209.084.093-.249 1.274.106-.097c.451-.41.852-.692 1.3-.947.441-.255.885-.381 1.332-.381.043 0 .087 0 .134.002l.075.076zm11.677 2.213c0 .532-.12 1.083-.238 1.62l-1.013 5.175-.077.062-2.283.08-.057-.08s1.17-5.715 1.17-6c0-.259-.136-.953-.863-.953-.572 0-1.164.578-1.164.578l-1.232 6.313-.076.062-.983.035-.88.03-.435.014-.025-.035-.029-.044s.178-.87.395-1.947h-.005c.34-1.685.777-3.879.777-4.053 0-.259-.137-.953-.864-.953-.57 0-1.162.578-1.162.578l-1.233 6.313-.078.062-.352.013-1.943.064-.05-.077 1.712-8.789.085-.086 2.277-.215.093.093-.242 1.236s1.098-1.204 2.5-1.232c1.307-.024 1.58 1.232 1.58 1.232s1.3-1.26 2.688-1.232c.702.006 2.002.316 2.007 2.136zm-47.668-1.557c-.502-.355-1.303-.537-2.404-.537-.545 0-1.092.052-1.64.157-.493.093-.799.173-1.06.248l-.07.072-.357 1.83.115.07c.23-.106.566-.236 1.01-.393.454-.16.87-.24 1.248-.24.552 0 .97.075 1.259.231.294.159.503.507.503.89 0 .094-.007.177-.02.252-.015.07-.024.122-.027.152l-.005.04s-.178.012-.368.028c-.125.012-.286.03-.47.051-.3.033-.648.075-.95.127-.728.12-2.77.439-3.384 1.808-.643 1.123-.533 2.61.099 3.335.22.256.561.497 1.02.59v.002c.02.006.09.015.105.019 1.768.273 3.036-1.267 3.036-1.267l-.19.95.078.066 1.986-.067.082-.072 1.167-5.872c.025-.124.046-.27.061-.437.012-.169.022-.305.022-.406-.002-.751-.341-1.273-.846-1.627zm-2.043 5.871s-.474.746-1.159 1.013c-.685.266-1.18.056-1.375-.21-.156-.207-.48-.863.138-1.6.625-.744 2.696-.792 2.696-.792l-.3 1.589zm-4.786-4.52l-.095.093-1.368-.035-.634 2.987c-.09.374-.284 1.31-.284 1.61 0 .282.105.474.253.587.148.116.33.153.494.154.381 0 .514-.106.768-.203l.045.041-.336 1.721-.116.113c-.467.1-.817.18-1.312.18-1.27-.007-2.192-.434-2.197-1.92 0-.695.281-1.96.49-2.9l.504-2.372-1.075.037-.065-.093.315-1.671.097-.055h1.092l.438-2.2.085-.096c1.092-.28 1.408-.415 2.407-.743l.05.06-.33 1.417-.34 1.596 1.4-.042.04.073-.326 1.66zm-5.143-4.059l-.416 2.143-.091.029c-.166-.232-.265-.324-.496-.502-.512-.393-1.118-.617-1.738-.617-.485 0-.889.152-1.169.404-.281.252-.442.61-.442 1.01.002.756.519 1.124 1.439 1.676l.357.203c.77.505 1.967 1.28 1.967 3.038-.003 1.999-1.283 4.003-4.354 4.008-.752 0-1.49-.134-2.199-.4-.478-.182-.709-.342-.998-.556l-.024-.138.407-2.09.092-.03c.185.239.417.434.763.663.74.494 1.45.547 1.752.547 1.084-.001 1.936-.62 1.936-1.582 0-.86-.68-1.292-1.392-1.712l-.491-.302c-.774-.506-1.846-1.195-1.85-2.92 0-.663.192-1.615.779-2.395.774-1.026 1.992-1.395 3.22-1.395 1.578 0 2.481.56 2.905.831l.043.087zm-22.206 3.775c.622.384 1.497.628 2.48.628.983 0 1.865-.244 2.497-.628.633-.384 1.007-.902 1.008-1.449-.001-.548-.372-1.06-1.003-1.441-.629-.38-1.51-.62-2.494-.621-.984.001-1.86.24-2.484.62-.626.381-.993.893-.994 1.44.001.55.367 1.067.99 1.45zm.157 2.963c-.629-.38-1.51-.619-2.493-.619-.984 0-1.86.239-2.484.618-.626.38-.993.89-.995 1.438.002.55.367 1.066.991 1.452.622.382 1.496.626 2.48.628.984-.002 1.867-.246 2.498-.63.632-.384 1.006-.9 1.007-1.449-.001-.546-.373-1.057-1.004-1.438zm9.627 0c-.63-.38-1.511-.619-2.495-.619-.983 0-1.86.239-2.484.618-.625.38-.992.89-.992 1.44 0 .547.365 1.064.99 1.45.622.382 1.496.626 2.479.628.984-.002 1.867-.246 2.499-.63.632-.384 1.005-.9 1.006-1.449 0-.546-.372-1.057-1.003-1.438zm-2.506-2.055c-.445 0-.874.041-1.282.118.892-.637 1.441-1.513 1.441-2.48 0-1.945-2.209-3.494-4.951-3.494-2.742 0-4.928 1.549-4.928 3.494 0 .969.539 1.845 1.422 2.482-.416-.079-.853-.12-1.303-.12-2.742 0-4.928 1.548-4.928 3.492 0 1.942 2.174 3.52 4.917 3.52 2.334 0 4.291-1.142 4.823-2.68.52 1.538 2.443 2.68 4.777 2.68 2.743 0 4.964-1.578 4.964-3.52 0-1.944-2.21-3.492-4.952-3.492zm-8.826-2.364c.002-.876.668-1.467 1.058-1.743.78-.555 1.837-.853 2.976-.853 1.142 0 2.203.3 2.99.853.393.277 1.065.87 1.069 1.743-.013 1.461-1.888 2.624-4.071 2.627-1.135 0-2.187-.303-2.964-.862-.676-.485-1.058-1.11-1.058-1.765zm-.786 8.48c-1.135 0-2.187-.303-2.966-.863-.674-.484-1.057-1.108-1.057-1.761.004-.876.669-1.47 1.057-1.746.781-.551 1.838-.851 2.977-.853 1.143.002 2.204.302 2.99.855.393.278 1.068.87 1.071 1.744-.013 1.459-1.89 2.621-4.072 2.624zm4.825-3.462c-.215-.62-.661-1.173-1.27-1.61.4.074.818.114 1.25.114.446 0 .875-.042 1.285-.118-.608.438-1.054.991-1.265 1.614zm4.775 3.462c-1.134 0-2.186-.303-2.964-.863-.675-.484-1.06-1.108-1.06-1.761.004-.876.67-1.468 1.06-1.746.78-.551 1.837-.851 2.976-.853 1.143.002 2.203.302 2.992.855.393.278 1.064.871 1.067 1.744-.012 1.459-1.887 2.621-4.07 2.624zM143.083 112.941c0 .776-.559 1.366-1.296 1.366-.733 0-1.295-.59-1.295-1.366 0-.792.55-1.37 1.303-1.37.729 0 1.288.594 1.288 1.37zm-2.42-.004c0 .663.504 1.203 1.124 1.203.62 0 1.126-.54 1.126-1.207 0-.318-.12-.64-.321-.853-.197-.21-.507-.342-.788-.342-.656 0-1.141.512-1.141 1.199zm1.063-.772c.163 0 .24.008.333.039.163.054.268.21.268.384 0 .186-.115.334-.303.392l.314.737h-.217l-.29-.698-.016-.004H141.532l-.023.004v.698h-.198v-1.552h.415zm-.012.69c.191 0 .264-.011.323-.057.06-.043.097-.12.097-.206 0-.112-.051-.194-.15-.229-.053-.023-.138-.03-.31-.03h-.165v.523h.205z" transform="translate(-1172.000000, -516.000000) translate(1172.916502, 516.000000)"/>
                <path fill="#1D428A" d="M3.477 116.458v4.168h-.905v-12.664h1.1c1.577 0 2.234.568 2.234 3.813v1.296c0 2.801-.8 3.404-1.97 3.387h-.46zm0-7.573v6.668h.496c.656 0 1.028-.674 1.028-2.607v-1.135c0-1.916-.23-2.926-1.011-2.926h-.513zM7.732 120.626H6.88v-9.932h.567c.124.23.194.46.23.674.195-.533.78-.78 1.419-.78h.018v.868h-.072c-.69 0-1.311.265-1.311.798v8.372zM11.154 120.733c-.976 0-1.596-.443-1.596-2.094v-5.924c0-1.632.62-2.127 1.596-2.127.975 0 1.595.442 1.595 2.093v3.546h-2.34v2.625c0 .71.141 1.117.745 1.117.603 0 .745-.407.745-1.117v-1.312h.85v1.099c0 1.65-.62 2.094-1.595 2.094zm-.745-5.25h1.49v-3.016c0-.709-.142-1.117-.745-1.117-.604 0-.745.408-.745 1.117v3.016zM14.948 115.855c-.71-1.082-1.311-2.04-1.311-3.21 0-1.331.46-2.057 1.595-2.057 1.188 0 1.596.708 1.596 2.216v.869h-.851v-1.046c0-.905-.178-1.277-.745-1.277-.55 0-.744.372-.744 1.189 0 .832.496 1.808 1.151 2.766.834 1.224 1.189 2.377 1.189 3.44 0 1.225-.443 1.987-1.596 1.987-1.188 0-1.595-.656-1.595-2.34v-.852h.851v.852c0 1.187.177 1.578.779 1.578.532 0 .71-.479.71-1.225 0-.674-.319-1.808-1.029-2.89M19.31 120.733c-.975 0-1.595-.443-1.595-2.094v-5.924c0-1.632.62-2.127 1.596-2.127.975 0 1.595.442 1.595 2.093v3.546h-2.34v2.625c0 .71.142 1.117.745 1.117s.744-.407.744-1.117v-1.312h.851v1.099c0 1.65-.62 2.094-1.595 2.094zm-.744-5.25h1.49v-3.016c0-.709-.142-1.117-.745-1.117s-.745.408-.745 1.117v3.016zM22.821 120.626h-.85v-9.932h.638c.052.141.088.283.106.408.284-.301.727-.515 1.206-.515.638 0 1.24.32 1.24 1.419v8.62h-.85v-8.514c0-.46-.196-.763-.675-.763-.354 0-.602.143-.832.32.017.142.017.266.017.39v8.567zM27.68 120.662c-.887 0-1.348-.32-1.348-1.419v-7.77h-.55v-.779h.55v-1.828l.85-.212v2.04H28v.78h-.816v7.733c0 .479.195.656.64.656h.247v.764c-.124.017-.248.035-.39.035M30.162 120.733c-.976 0-1.596-.443-1.596-2.094v-5.924c0-1.632.62-2.127 1.596-2.127.975 0 1.595.442 1.595 2.093v3.546h-2.34v2.625c0 .71.143 1.117.745 1.117.603 0 .745-.407.745-1.117v-1.312h.85v1.099c0 1.65-.62 2.094-1.595 2.094zm-.745-5.25h1.49v-3.016c0-.709-.142-1.117-.745-1.117-.602 0-.745.408-.745 1.117v3.016zM35.269 120.218c-.285.302-.728.515-1.206.515-.638 0-1.241-.32-1.241-1.42v-7.307c0-1.1.603-1.419 1.24-1.419.426 0 .816.16 1.1.408v-3.033h.851v12.665h-.638c-.053-.144-.089-.285-.106-.409m-.09-.567c-.017-.142-.017-.266-.017-.391v-7.59c-.212-.196-.462-.32-.815-.32-.48 0-.674.302-.674.762v7.096c0 .46.195.762.674.762.353 0 .603-.142.832-.319M39.328 120.218c-.017.124-.053.265-.106.409h-.64v-12.665h.853v3.033c.283-.248.674-.408 1.098-.408.64 0 1.242.319 1.242 1.419v7.307c0 1.1-.603 1.42-1.242 1.42-.477 0-.922-.213-1.205-.515m1.596-1.01v-7.096c0-.46-.195-.763-.674-.763-.354 0-.603.125-.815.32v7.59c0 .126 0 .25-.019.392.231.177.48.319.834.319.48 0 .674-.302.674-.762M43.442 120.626l-1.064-9.932h.922l.78 8.815.833-8.815h.87l-1.135 9.932h.017c-.248 1.898-.904 2.377-2.233 2.412v-.726c1.134-.054 1.382-.834 1.489-1.686h-.48z" transform="translate(-1172.000000, -516.000000) translate(1172.916502, 516.000000)"/>
                <g transform="translate(-1172.000000, -516.000000) translate(1172.916502, 516.000000)">
                    <mask id="bw3v214ynb" fill="#fff">
                        <use xlink:href="#2cg4gf5qda"/>
                    </mask>
                    <path fill="#FFF" d="M33.794 0H10.36C4.643 0 0 4.651 0 10.362v79.376c0 5.72 4.643 10.377 10.36 10.377h23.417c5.716 0 10.383-4.657 10.383-10.377V10.362C44.16 4.652 39.507 0 33.794 0" mask="url(#bw3v214ynb)"/>
                </g>
                <path fill="#C8102E" d="M27.98 18.353l.025.339c.715.416 1.077.756 1.797 1.22 1.912 1.203 4.266 3.342 3.97 10.712.535 1.607.772 4.766 1.267 5.779.995 1.974 1.66 3.258 1.95 5.122 0 0 .287 2.901.661 3.11 1.976.447 1.405.642 1.694.98.307.397 1.448.379 1.448 1.443.396.53.688 1.08.911 1.653V10.362c0-4.37-3.553-7.919-7.91-7.919h-7.57c1.216.432 1.902.943 2.303 1.753.978.084 2.14 2.276.33 5.514.801.534.175 1.332-.4 2.26-.169.297-.353.824-.888.79-.688 1.446-1.518 2.848-2.145 2.936-.19.235-.329.858-.043 1.15.922.414 2.045.98 2.6 1.507M41.703 53.907c-1.027 2.607-3.584 4.45-6.572 4.45-3.91 0-7.06-3.162-7.06-7.06 0-3.331 2.288-6.125 5.395-6.87-.814-2.038-2.532-5.34-3.043-6.424-.483-1.076-1.647-7.791-1.898-9.12-.057-.29-3.046 1.735-3.051 1.86-.175.17-2.243 5.572-2.33 5.863-.041.185-.047.906-.047.906s1.017.126 1.602 1.9c.58 1.773 2.345 8.243 2.345 8.243s-.478.494-.498.464c2.23 7.469 1.45 10.683 2.452 12.873 1.258 3.087 1.597 2.682 2.676 5.277.774 1.89 1.637 9.325 1.926 9.655 1.204 1.526 1.852 2.72 1.852 3.582 0 .866-1.02 3.427-.648 4.919.225.877.343 2.844.752 3.218 0 0 .374.738.19 1.066-.053.114-.16.285-.112.42.665 2.346 2.808 6.345-.664 8.44h.075c3.789-.588 6.658-3.839 6.658-7.831V53.907z" transform="translate(-1172.000000, -516.000000) translate(1172.916502, 516.000000)"/>
                <path fill="#1D428A" d="M32.786 88.217c-1.272-1.136-.422-1.617-.473-2.065-.84-3.467-3.592-5.564-2.168-6.71-.352-1.144-1.067-2.582-1.04-2.58-4.292-2.464-7.945-6.467-8.566-7.055-.752-.817-2.034-1.64-2.275-2.303-1.031-.948-6.089-8.124-7.267-10.767l-2.052-.29c-.934-3.816-4.051-7.014-4.128-10.84-.03-1.445.655-4.544.91-5.161.25-.627 1.444-1.656 1.444-1.656v-1.024c-4.478.128-3.19-.33-3.962-2.071-.542-1.206-.154-1.47.042-2.307.6-2.469 2.596-6.275 3.422-8.005.252-.873 1.116-2.977 1.116-2.977 3.337-6.798 4.583-6.298 8.546-6.681l.196-.281c3.971-.172 3.321-.472 3.881-4.3-.578.249-.75-1.198-.75-1.198-.316-2.178.602-1.765 1.038-1.809.093-3.58.46-4.707 3.042-5.694H10.364c-4.377 0-7.922 3.549-7.922 7.924v79.37c0 4.38 3.545 7.93 7.922 7.93h23.43c-2.682-1.45-1.099-4.21-1.008-9.45" transform="translate(-1172.000000, -516.000000) translate(1172.916502, 516.000000)"/>
                <path fill="#FFF" d="M9.102 92.678H7.429v-14.37h2.65l2.13 11.774c-.18-2.817-.42-6.22-.42-9.117v-2.657h1.674v14.37h-2.43l-2.13-11.513c.14 2.657.199 4.771.199 6.985v4.528zm14.732-12.76h-.099c-.12 1.73-.358 4.77-.438 5.736l-.218 2.475h1.492l-.219-2.475c-.08-.986-.358-3.985-.518-5.736zm.857 9.841H22.96l-.24 2.919h-1.93l1.732-14.37h2.747l1.672 14.37h-2.01l-.239-2.919zm-7.984-9.64v4.75h.717c.677 0 .856-.242.856-1.027v-2.756c0-.666-.2-.967-.836-.967h-.737zm0 6.32v4.427h.737c.657 0 .836-.342.836-1.026v-2.435c0-.705-.219-.967-.856-.967h-.717zm-1.91 6.239v-14.37h2.786c1.612 0 2.609.865 2.609 2.878v2.134c0 1.307-.399 1.971-.957 2.293.558.383.957 1.028.957 2.114v2.094c0 1.972-1.056 2.857-2.609 2.857h-2.787z" transform="translate(-1172.000000, -516.000000) translate(1172.916502, 516.000000)"/>
                <path fill="#1D428A" d="M59.603 8.277v34.276h1.09c1.99 0 2.44-1.797 2.44-4.75V12.898c0-2.952-.45-4.621-2.44-4.621h-1.09zm-6.16 40.053V2.5h6.48c6.353 0 9.37 3.466 9.37 10.334v24.841c0 7.446-3.658 10.655-9.37 10.655h-6.48zM78.533 8.277v19.192h1.027c1.989 0 2.502-1.09 2.502-3.274V11.55c0-2.182-.513-3.273-2.502-3.273h-1.027zm1.09 24.52h-1.09V48.33h-6.16V2.5h7.636c5.198 0 8.213 2.888 8.213 9.243v11.81c0 4.686-1.668 7.51-4.684 8.666 1.604.578 2.31 2.247 2.952 5.264.449 1.797 2.053 10.847 2.053 10.847h-6.416l-2.503-15.533zM96.885 33.567h3.145l-.45-7.446c-.256-3.466-.898-14.635-1.219-20.155-.385 5.52-.834 16.882-1.026 20.155l-.45 7.446zm3.465 5.713h-3.785l-.514 9.05h-6.224L94.255 2.5h8.79l4.364 45.83h-6.481l-.578-9.05zM115.173 27.405L115.173 48.331 109.012 48.331 109.012 2.5 120.948 2.5 120.948 8.277 115.173 8.277 115.173 22.398 120.178 22.398 120.178 27.405zM122.231 2.5L137.952 2.5 137.952 8.277 133.139 8.277 133.139 48.33 126.979 48.33 126.979 8.277 122.231 8.277z" transform="translate(-1172.000000, -516.000000) translate(1172.916502, 516.000000)"/>
                <path fill="#C8102E" d="M69.228 97.764H53.507V95.71c0-10.014 2.246-12.71 5.711-18.615 2.888-4.814 3.914-7.703 3.914-13.351v-3.467c0-2.31-.577-2.952-1.732-2.952-1.22 0-1.797.642-1.797 2.952v7.831h-6.16v-7.253c0-6.996 2.566-9.307 7.957-9.307 5.326 0 7.892 2.31 7.892 9.307v2.632c0 6.611-1.989 10.527-5.197 16.56-2.375 4.558-4.877 7.96-4.813 11.747h9.946v5.97zM82.062 60.277c0-2.31-.577-2.952-1.732-2.952-1.22 0-1.797.642-1.797 2.952V89.42c0 2.311.577 2.953 1.797 2.953 1.155 0 1.732-.642 1.732-2.953V60.277zm6.16.578v27.987c0 6.996-2.502 9.307-7.892 9.307-5.39 0-7.957-2.31-7.957-9.307V60.855c0-6.996 2.566-9.307 7.957-9.307 5.326 0 7.892 2.31 7.892 9.307zM107.088 97.764H91.367V95.71c0-10.014 2.246-12.71 5.711-18.615 2.888-4.814 3.914-7.703 3.914-13.351v-3.467c0-2.31-.577-2.952-1.732-2.952-1.22 0-1.797.642-1.797 2.952v7.831h-6.16v-7.253c0-6.996 2.566-9.307 7.957-9.307 5.326 0 7.892 2.31 7.892 9.307v2.632c0 6.611-1.989 10.527-5.197 16.56-2.375 4.558-4.877 7.96-4.813 11.747h9.946v5.97zM118.318 97.764h-6.16V60.598c-.77.386-1.54.578-2.31.77l-.642-5.199c3.208-.256 4.877-1.283 6.416-4.236h2.696v45.83z" transform="translate(-1172.000000, -516.000000) translate(1172.916502, 516.000000)"/>
            </g>
        </g>
    </g>
</svg>
