<svg viewBox="0 0 38 20" width="38" height="20" xmlns="http://www.w3.org/2000/svg"><g fill="none" fill-rule="evenodd"><path d="m12.349 16.42c-.878-.043-1.602-.783-1.603-1.665-.002-4.363 0-8.726 0-13.09 0-.898.774-1.66 1.669-1.662 1.302-.004 2.605-.004 3.907 0a1.696 1.696 0 0 1 1.669 1.663c0 4.363.002 8.726 0 13.089 0 .882-.725 1.622-1.602 1.666h-4.04" fill="#fffffe"/><path d="m11.268 1.133c.205-.444.68-.741 1.168-.74.738.003 1.476-.011 2.214.008-.175.056-.353.157-.425.336-.07.187-.074.39-.086.587-.072.009-.172.016-.171.114-.002.137-.016.325.122.404-.037.194-.003.418-.123.587-.134.116-.331.077-.495.099a7.87 7.87 0 0 1 -.042.049c-.177.014-.355.027-.53.064a.785.785 0 0 0 -.408.258c-.171.2-.296.436-.418.67-.135.26-.201.55-.34.81-.199.403-.398.811-.5 1.25-.023.08.013.156.036.23.035.097.054.2.094.295.18.053.368.048.554.042 0 .052 0 .104-.003.156-.08.113-.213.194-.25.336-.07.254-.115.516-.135.78.021.661.53 1.162.678 1.787.112.02.224.042.338.053.271.526.617 1.009.964 1.486.146.178.272.377.455.52.162.138.3.301.456.444.338.317.695.622 1.1.852.064.135.125.273.169.416-.044.075-.086.16-.038.245.123.29.332.547.398.862.003.072-.061.14-.026.212.028.055.071.1.11.148 0 .404-.118.802-.082 1.206.01.141.119.242.217.331-1.289 0-2.578.002-3.866 0a1.3 1.3 0 0 1 -1.267-1.346v-12.811c-.007-.252.016-.512.132-.74" fill="#1d4489"/><path d="m15.057.396c.389-.01.778 0 1.167-.005.33-.006.666.096.915.316.298.249.46.635.463 1.02-.002 2.09.002 4.178-.002 6.268-.073-.131-.148-.26-.204-.4-.076-.041-.164-.073-.212-.15-.063-.096-.192-.093-.287-.14-.074-.279-.062-.576-.174-.845-.085-.249-.258-.464-.295-.73-.036-.253-.094-.503-.14-.754.008-.441-.01-.909-.238-1.3-.16-.278-.452-.431-.707-.607a2.747 2.747 0 0 0 -.013-.075 3.443 3.443 0 0 0 -.453-.25c.012-.06-.007-.14.058-.174.164-.111.236-.303.33-.468.126-.04.164-.177.23-.276a.197.197 0 0 0 -.006-.244c.105-.218.198-.474.113-.715a.28.28 0 0 0 -.17-.187c-.086-.14-.227-.224-.375-.284m-.097 4.614c.142-.117.304-.208.469-.29.077.447.159.893.258 1.335.02.083.048.164.084.24.16.33.334.654.469.995-.605.132-1.017.803-.852 1.402.13.614.828 1.03 1.428.842.355-.089.644-.362.784-.696.004 1.84 0 3.681.001 5.522-.002.227.019.459-.044.681-.109.506-.56.909-1.07.978.14-.095.263-.228.299-.398.059-.311-.067-.612-.166-.902-.047-.093.02-.2-.026-.293-.09-.189-.107-.4-.14-.604-.038-.262.08-.508.103-.764.002-.242-.186-.42-.301-.614-.055-.136-.05-.286-.084-.426-.096-.488-.112-1.012-.378-1.447-.195-.306-.372-.643-.39-1.012a7.956 7.956 0 0 0 -.3-1.662l.077-.078c-.12-.442-.243-.884-.374-1.322-.042-.146-.126-.29-.274-.346.003-.07 0-.143.03-.208.104-.27.206-.54.315-.806.02-.046.041-.095.082-.127" fill="#c8112d"/><path d="m14.807 6.497c-.041-.146-.126-.29-.274-.347.003-.07 0-.142.03-.208l.315-.805c.02-.046.042-.095.082-.127.142-.117.304-.208.468-.29.078.447.16.893.258 1.335l.085.24c.16.33.334.654.47.995-.605.132-1.019.804-.853 1.402.13.614.828 1.03 1.428.842.356-.089.644-.362.784-.696v-.843c-.073-.13-.148-.26-.204-.4-.076-.041-.164-.072-.212-.15-.063-.096-.192-.094-.287-.14-.074-.279-.062-.576-.174-.844-.085-.25-.258-.465-.296-.731-.035-.254-.093-.503-.138-.754.007-.44-.01-.909-.239-1.3-.159-.279-.452-.431-.706-.607l-.014-.075a3.484 3.484 0 0 0 -.453-.25c.012-.06-.007-.14.058-.174.164-.111.236-.303.33-.468.125-.04.164-.177.23-.275a.197.197 0 0 0 -.006-.245c.105-.218.198-.474.113-.715a.277.277 0 0 0 -.17-.187c-.086-.14-.227-.224-.375-.283l-.407.003c-.175.057-.353.158-.425.337-.07.187-.073.39-.086.587-.072.008-.172.016-.172.114-.001.137-.015.325.123.403-.037.195-.002.42-.123.588-.134.116-.33.077-.495.099l-.042.049c-.177.015-.355.027-.529.064a.785.785 0 0 0 -.409.258c-.171.2-.296.436-.418.67-.136.26-.201.55-.34.81-.199.403-.397.811-.5 1.25-.024.08.012.157.036.23.035.097.053.2.094.295.18.053.368.048.554.042 0 .052 0 .104-.002.156-.08.113-.214.193-.25.336-.07.254-.116.516-.136.78.02.661.53 1.163.678 1.787l.338.053c.271.526.617 1.009.964 1.486.146.178.272.377.455.52.162.138.3.301.456.444.338.318.695.622 1.1.852.064.135.125.273.168.417-.043.074-.085.16-.037.244.123.291.332.547.398.862.003.072-.061.14-.026.212.028.055.071.1.11.148 0 .404-.118.802-.081 1.206.009.141.118.242.216.33l.219-.01c.14-.095.262-.228.298-.398.058-.311-.067-.612-.166-.901-.047-.095.02-.201-.026-.294-.09-.189-.106-.4-.14-.604-.038-.262.081-.508.103-.764.002-.242-.186-.42-.301-.614-.055-.135-.05-.286-.084-.426-.096-.488-.112-1.012-.378-1.447-.194-.306-.372-.642-.39-1.012a7.999 7.999 0 0 0 -.3-1.662l.077-.078z" fill="#fffffe"/><path d="m8.208 13.357c.734 0 1.33.6 1.33 1.339 0 .74-.596 1.34-1.33 1.34s-1.329-.6-1.329-1.34.595-1.34 1.33-1.34m-6.142-12.965a1.33 1.33 0 0 1 1.327 1.331c0 .735-.594 1.331-1.327 1.331a1.33 1.33 0 0 1 -1.327-1.33 1.33 1.33 0 0 1 1.327-1.333m3.97 15.633h-2.101v-12.231h1.672c.076.25.166.653.232.956.366-.866.972-1.236 1.714-.955v2.227h-.854c-.275.012-.525.102-.662.353v9.65m15.994 0h-2.085v-12.231h1.768c.076.25.089.335.155.637.365-.433.848-.767 1.69-.781 1.21 0 1.622.974 1.622 1.865v10.51h-2.104v-9.83c0-.394-.162-.904-1.046-.52zm6.166-10.346c.922-.33 1.035.121 1.035.515v7.414c0 .393-.103.864-1.042.52zm-2.104-5.26h2.1v3.82c.377-.364.788-.578 1.528-.59 1.214 0 1.62.968 1.62 1.918l-.007 8.734c0 .891-.399 1.852-1.613 1.852-.844-.014-1.255-.302-1.68-.761-.067.302-.1.38-.176.63h-1.772zm9.296 10.002c-.559.022-1.034.09-1.034.985v2.02c0 .467.048 1.059 1.035.724v-3.73zm-3.139 1.174c0-1.585.805-2.813 3.14-2.527v-2.612c0-.59-.105-.914-.52-.914-.455 0-.515.418-.515 1.043v1.581h-2.061v-1.6c0-2.052.742-2.919 2.567-2.919 1.756 0 2.632.693 2.632 2.912l.006 9.463-1.783.003a7.86 7.86 0 0 1 -.19-.716c-.367.462-.775.837-1.618.851-1.215 0-1.65-.893-1.65-1.95zm-32.251 5.797.245.001c.58.003.681-.227.681-.738v-12.861h2.09l-.001 13.152c0 .618-.07 1.324-.445 1.781-.362.442-1.035.657-2.568.42z" fill="#1d4489"/></g></svg>