<svg xmlns="http://www.w3.org/2000/svg" viewBox="0 0 45 25">
	<g>
		<path fill="#ffffff" d="M8.7,0.4H3c-1.4,0-2.5,1.1-2.5,2.5v19.2c0,1.4,1.1,2.5,2.5,2.5h5.7c1.4,0,2.5-1.1,2.5-2.5V2.9
			C11.2,1.5,10.1,0.4,8.7,0.4"/>
		<path fill="#1A428A" d="M8.4,21.7c-0.3-0.3-0.1-0.4-0.1-0.5c-0.2-0.8-0.9-1.3-0.5-1.6c-0.1-0.3-0.3-0.6-0.3-0.6
			c-1-0.6-1.9-1.6-2.1-1.7C5.3,17,5,16.8,4.9,16.7c-0.2-0.2-1.5-2-1.8-2.6L2.7,14c-0.2-0.9-1-1.7-1-2.6c0-0.3,0.2-1.1,0.2-1.2
			C1.9,10,2.2,9.7,2.2,9.7V9.5c-1.1,0-0.8-0.1-1-0.5c-0.1-0.3,0-0.4,0-0.6c0.1-0.6,0.6-1.5,0.8-1.9c0.1-0.2,0.3-0.7,0.3-0.7
			c0.8-1.6,1.1-1.5,2.1-1.6l0-0.1c1,0,0.8-0.1,0.9-1C5.3,3.1,5.3,2.8,5.3,2.8C5.2,2.2,5.4,2.3,5.5,2.3c0-0.9,0.1-1.1,0.7-1.4H3
			C1.9,1,1.1,1.8,1.1,2.9v19.2C1.1,23.1,1.9,24,3,24h5.7C8,23.6,8.4,23,8.4,21.7"/>
		<path fill="#CE0E2D" d="M7.3,4.8L7.3,4.8C7.4,5,7.5,5.1,7.7,5.2c0.5,0.3,1,0.8,1,2.6C8.8,8.2,8.9,8.9,9,9.2c0.2,0.5,0.4,0.8,0.5,1.2
			c0,0,0.1,0.7,0.2,0.8c0.5,0.1,0.3,0.2,0.4,0.2c0.1,0.1,0.3,0.1,0.3,0.3c0.1,0.1,0.2,0.3,0.2,0.4V2.9C10.6,1.8,9.7,1,8.7,1H6.8
			c0.3,0.1,0.5,0.2,0.6,0.4c0.2,0,0.5,0.6,0.1,1.3c0.2,0.1,0,0.3-0.1,0.5c0,0.1-0.1,0.2-0.2,0.2C7,3.8,6.8,4.1,6.6,4.2
			c0,0.1-0.1,0.2,0,0.3C6.9,4.5,7.1,4.7,7.3,4.8"/>
		<path fill="#CE0E2D" d="M10.6,13.4C10.3,14,9.7,14.5,9,14.5c-0.9,0-1.7-0.8-1.7-1.7c0-0.8,0.6-1.5,1.3-1.7C8.4,10.6,8,9.8,7.9,9.6
			C7.7,9.3,7.5,7.7,7.4,7.3c0-0.1-0.7,0.4-0.7,0.4c0,0-0.5,1.3-0.6,1.4c0,0,0,0.2,0,0.2s0.2,0,0.4,0.5c0.1,0.4,0.6,2,0.6,2
			S6.9,12,6.9,12c0.5,1.8,0.4,2.6,0.6,3.1c0.3,0.7,0.4,0.6,0.6,1.3c0.2,0.5,0.4,2.3,0.5,2.3c0.3,0.4,0.4,0.7,0.4,0.9
			c0,0.2-0.2,0.8-0.2,1.2C9,21,9,21.5,9.1,21.6c0,0,0.1,0.2,0,0.3c0,0,0,0.1,0,0.1c0.2,0.6,0.7,1.5-0.2,2h0c0.9-0.1,1.6-0.9,1.6-1.9
			L10.6,13.4L10.6,13.4z"/>
		<path fill="#1A428A" d="M14.8,12h-1.3V1h2l1.3,9.1c-0.2-2.2-0.5-5.7-0.5-7.5V1h1.3v11h-1.8l-1.2-8.8c0.1,2,0.2,4.3,0.2,5.7V12z"/>
		<path fill="#1A428A" d="M18.5,12V1h1.8c1.2,0,2,0.7,2,2.2v1.6c0,1-0.3,1.5-0.7,1.8c0.4,0.3,0.7,0.8,0.7,1.6v1.6c0,1.5-0.8,2.2-2,2.2
			L18.5,12L18.5,12z M19.9,2.4V6h0.2c0.5,0,0.7-0.2,0.7-0.8V3.1c0-0.5-0.2-0.7-0.6-0.7H19.9z M19.9,7.2v3.4h0.2
			c0.5,0,0.6-0.3,0.6-0.8V7.9c0-0.5-0.2-0.7-0.7-0.7L19.9,7.2L19.9,7.2z"/>
		<path fill="#1A428A" d="M25.1,9.9h-0.9L24,12h-1.5l1.1-11h2.1l1.1,11h-1.6L25.1,9.9z M24.2,8.7H25l-0.1-2c0-0.8-0.2-3.4-0.3-4.7
			h-0.1l-0.2,4.7L24.2,8.7z"/>
		<path fill="#CE0E2D" d="M17.9,21.1c0,1.5-1.4,3.5-3.3,3.5c-1.3,0-2.6-1.1-2.6-3.4c0-4,3.3-7.9,6-7.9c0.9,0,1.7,0.4,1.7,1.8
			c0,1.4-1,2.8-2.1,2.8c-0.5,0-0.7-0.3-0.8-0.4c0.7-0.3,1.4-1.2,1.4-2.4c0-0.4-0.1-0.8-0.6-0.8c-1.6,0-4,3.6-4,6.9
			c0,1.4,0.4,2.3,1.3,2.3c1.1,0,2-1.3,2.4-3C17.7,20.5,17.9,20.8,17.9,21.1z"/>
		<path fill="#CE0E2D" d="M42.9,13.9c-0.6,0-1.2,0.2-1.5,0.8c-0.1-0.5-0.6-0.8-1-0.8c-0.9-0.1-1.8,0.7-1.9,2.1
			c-0.1,1.6,0.8,3.1,1.5,3.1c0.1,0,0.2-0.1,0.2-0.1c-0.5-0.4-1.1-1.3-1-2.8c0.1-1,0.4-1.5,0.9-1.5c0.4,0,0.7,0.4,0.4,1.3
			c0,0,0.1,0,0.2,0c0.5,0,0.7-0.4,0.9-0.7c0.2-0.3,0.5-0.5,0.8-0.5c0.5,0,0.8,0.4,0.7,1.2c-0.2,2.2-2.3,3.3-4.7,4.1
			c-0.2,0.1-0.4,0.1-0.6,0.2c-0.1-1-0.4-2-0.4-3.2c0-0.9,0.1-1.4,0.2-1.8c-0.1-0.1-0.2-0.2-0.4-0.2c-0.3,0-0.6,0.2-0.8,0.5
			c-0.1,0.1-0.1,0.3-0.2,0.5c-1.8,4.4-3.2,6.8-4.7,6.8c-0.5,0-0.9-0.3-0.9-1.4c0-0.3,0-0.7,0.1-1c0.1,0,0.2,0,0.4,0
			c1.8,0,3.1-1.7,3.1-3.2c0-0.9-0.5-1.4-1.1-1.4c-1.4,0-3.1,2-3.7,4.3c-0.5,2-1.2,2.8-1.7,2.8c-0.2,0-0.3-0.1-0.3-0.5
			c0-0.6,0.4-1.7,0.9-2.7c0.6-1.4,1.3-2.9,1.3-3.2s-0.2-0.6-0.7-0.6c-0.2,0-0.8,0-1.7,0.1c0.1-0.4,0.3-0.8,0.5-1.1
			c-0.1-0.1-0.4-0.2-0.6-0.2c-0.9,0-1.3,1.2-1.3,1.7c0,0.2,0,0.4,0.1,0.5c-0.8,2-1.3,3.5-1.8,4.4c-0.6,1.4-0.9,1.7-1.2,1.7
			c-0.2,0-0.3-0.1-0.3-0.6c0-1.4,1.1-4.1,2.1-5.6c0-0.2-0.2-0.4-0.5-0.4c-0.2,0-0.3,0.1-0.5,0.2c-0.1-0.3-0.5-0.7-1.2-0.7
			c-2,0-4.4,3.4-4.4,6.3c0,1.3,0.5,1.9,1.3,1.9c0.7,0,1.2-0.4,1.9-1.5c0,0.8,0.4,1.5,1.2,1.5c0.8,0,1.6-0.7,2.3-2.3
			c0.5-1.1,1.1-2.5,1.8-4.5c0.1,0,0.3,0,0.5,0c0.2,0,0.4,0,0.8,0c-0.4,0.9-0.7,1.7-1,2.3c-0.6,1.5-1,2.4-1,3.2
			c0,0.9,0.5,1.4,1.2,1.4c0.9,0,1.6-0.9,2.1-1.8c0.2,1.1,0.8,1.8,1.8,1.8c1.9,0,3.6-2.4,5.1-6.2c0.1,1,0.3,1.9,0.4,2.8
			c-1.5,0.6-2.5,1.4-2.5,2.5c0,0.9,0.6,1.3,1.4,1.3c1.1,0,2.4-0.9,2.4-3.1c0-0.2,0-0.4,0-0.5c0.2-0.1,0.5-0.2,0.7-0.2
			c2.6-0.8,5.6-2.3,5.8-4.8C44.6,14.6,43.7,14,42.9,13.9z M32.9,16.8c0.2,0,0.4,0.1,0.4,0.6c0,1.1-0.8,2.7-2.2,2.7
			c-0.1,0-0.1,0-0.2,0C31.3,18.4,32.1,16.8,32.9,16.8z M22.6,18.9c-0.2,0.4-0.4,0.9-0.5,1.3c-1,2.5-1.5,2.9-1.9,2.9
			c-0.3,0-0.5-0.2-0.5-0.9c0-1.7,1.4-5.2,3-5.2c0.3,0,0.6,0.2,0.7,0.4C23.1,17.7,22.9,18.2,22.6,18.9z M36.7,21.5
			c0,1.4-0.4,2.3-1.2,2.3c-0.3,0-0.6-0.2-0.6-0.6C34.9,22.4,35.6,21.9,36.7,21.5C36.7,21.4,36.7,21.4,36.7,21.5z"/>
	</g>
</svg>
