<svg viewBox="0 0 18 40" xmlns="http://www.w3.org/2000/svg" xmlns:xlink="http://www.w3.org/1999/xlink"><mask id="a" fill="#fff"><path d="m.004 0h17.614v39.996h-17.614z" fill="#fff" fill-rule="evenodd"/></mask><g fill="none" fill-rule="evenodd"><path d="m13.492 0h-9.366a4.13 4.13 0 0 0 -4.126 4.125l.002 31.748a4.13 4.13 0 0 0 4.127 4.125l9.364.002a4.13 4.13 0 0 0 4.125-4.125v-31.747a4.132 4.132 0 0 0 -4.127-4.127" fill="#fffffe" mask="url(#a)"/><path d="m16.311 23.368a.089.089 0 0 0 .058-.066c.004-.02-.044-.092-.065-.134-.112-.22-.132-.502-.135-.535 0 0-.057-.893-.194-1.656a6.58 6.58 0 0 0 -.066-.49c-.035-.166-.242-.881-.324-1.203 0 0-.207-.973-.366-1.615-.23-.93-.729-1.53-1.006-2.008-.194-.88-.603-2.098-1.018-2.57-.124-.528-.195-1.094-.495-1.51-.317-.439-.57-.561-1.067-.68-.055-.014-.103-.037-.15-.051-.037-.094-.07-.118-.07-.118s-.345-.19-.488-.146c-.348-.147-.39-.646-.226-.75.13-.082.45-.164.524-.288.067-.112.078-.19.035-.325-.027-.088-.05-.083-.068-.19-.016-.091.038-.106.028-.183-.014-.106-.087-.134-.14-.144-.026-.006-.054-.034-.043-.069.002-.011.048-.116.055-.173.008-.057.006-.092-.072-.152-.102-.077-.088-.071-.144-.106-.003-.002-.003-.01 0-.011a.38.38 0 0 0 .134-.197c.018-.081-.003-.174-.068-.223-.116-.087-.544-.22-.587-.255-.098-.081.017-.2-.11-.418-.086-.15-.328-.387-.612-.58-.03-.137-.506-.25-.87-.242-.361.008-.736.108-1.014.261-.319.176-.698.471-.858.898-.24.75-.037 1.3.72 1.937.272.228.363.326.565.763-.016.007-.054.017-.07.023-.208-.104-.44-.212-.666-.24-.573-.07-.947-.01-.978-.053-.071-.101-.568-.482-.776-.601-.83-.479-1.303-.601-1.546-.69.086-.41.121-1.05.102-1.462-.039-.843.155-1.838.277-2.185.45.359 1.035.55 1.668.476a2.267 2.267 0 0 0 1.963-1.973 2.27 2.27 0 0 0 -1.622-2.467h6.965a3.137 3.137 0 0 1 3.138 3.138v31.764a3.137 3.137 0 0 1 -3.138 3.137h-7.413c.012-.018.166 0 .265-.176.161-.287.135-.905.192-1.475.046-.166.403-1.2.464-1.386.202-.32.361-.585.517-.766.156-.18.043-.305.043-.305s2.305-3.527 3.544-4.665c0 0 .25-.238.498-.437.518-.507.492-1.207.496-1.409.322-1.62.44-2.35.441-2.355.217-.104.371-.275.371-.275-.02-.57.173-1.725.4-2.97.427-2.334.07-3.856.07-3.856.063-.12.068-.202.031-.424-.063-.387-.09-.965-.138-1.252.09.247.248.796.68 1.326.536.66.804 1.372.977 1.885 0 0 .054.125 0 .2 0 0-.327.381-.34.811-.011.06-.03.265-.176.49-.03.045-.051.114-.114.238-.065.12-.142.184-.144.211-.009.138.165.198.33.061a1.61 1.61 0 0 0 .29-.337c.057-.093.189-.33.316-.335.12-.005.147.03.17.05.07.066.09.218.177.528.026.104.067.235.114.37.118.344.272.721.298.77-.002.042.064.18.107.263.059.11.146.183.202.185.042 0 .1-.037.102-.079 0-.013-.055-.176-.054-.178.085.066.202.053.238-.032.015-.036-.05-.13-.064-.152-.05-.082-.07-.162-.07-.162" fill="#1b1a19"/><path d="m8.286 26.515a.178.178 0 0 0 .15-.192l-.103-1.278s-.08-.011-.297-.17c.051-.47.07-.959.123-1.93-.007-2.345.184-3.315 1.24-5.023.008-.012.02-.04-.015-.08-.07-.081-.21-.408-.24-.637-.04-.302-.332-.84-1.904-3.021-1.494-1.592-1.276-2.189-1.922-2.564-.475-.275-1.232-.847-1.713-1.371-.455-.498-.88-.772-1.088-1.01-.296-.335-.188-.222-.13-1.35.058-1.12.518-2.076.904-2.918.273-.593.336-.656.29-1.294l-.043-.547c-.02-.251.117-.552.265-.797a2.27 2.27 0 0 1 .113-.244c.258-.495.693-.88 1.218-1.128h-1.054a3.137 3.137 0 0 0 -3.138 3.139v26.629c.233-.954.652-1.169.803-1.83.128-.558.426-.969.77-1.081a.6.6 0 0 1 .392.04c.158.08.511.272 1.01.394a.247.247 0 0 1 .108.104c.2.039 1.475-.297 2.28-1.01.455-.403.799-.743 1.981-.83m1.336 1.838c-1.593.577-2.898.656-5.468 1.511.039.283-.26.264-.949.622 0 0-1.1 1.046-1.211 1.334-.332.864-.61 1.166-.901 1.063-.06-.021-.11-.074-.15-.15v3.129a3.137 3.137 0 0 0 3.135 3.137h1.713c-.42-.183-.557-.464-.734-1.053a3.218 3.218 0 0 1 -.075-1.101c.054-.545.007-.775-.072-1.074-.15-.607-.242-1.047-.051-1.494.023-.054.174-.297.392-.297.238 0 .583-.005 1.112-.181.036-.012.08.005.116.027a.485.485 0 0 0 .193-.15c.34-.468.786-1.42 1.02-1.904.125-.259.14-.296.205-.552.314-1.234.455-1.785 1.724-2.867" fill="#1b1a19"/><path d="m13.41 34.258-.874.896h.988v.688a1.134 1.134 0 0 1 -.502.107c-.314 0-.598-.099-.82-.272 0 0-.066-.047-.131-.112s-.1-.114-.1-.114a1.62 1.62 0 0 1 -.289-.928c0-.76.516-1.318 1.225-1.318.177 0 .339.025.496.084l.201.077-.07.275h.397l.054-.024h.694v-1.607h-.758v.238a2.777 2.777 0 0 0 -1.006-.175c-1.512 0-2.602 1.054-2.602 2.53 0 1.433 1.047 2.43 2.551 2.43.71 0 1.348-.194 1.9-.574l-.001-2.2h-1.353" fill="#fffffe"/><path d="m12.748 33.651 1.158-.384-.421.507.456-.157-1.857 1.914.529-1.333-.302.116z" fill="#ee9c54"/><path d="m12.429 34.135-.118.179.302-.116.062-.156zm1.255-.795-.423.512.224-.078.422-.507-.223.074m-.007.367-1.472 1.52-.12.303 1.856-1.914z" fill="#e7c200"/><path d="m11.806 36.015.652-1.643-.374.143.613-.933 1.556-.516-.418.503.522-.183-2.55 2.63zm.505-1.701.302-.115-.529 1.332 1.857-1.914-.456.157.421-.507-1.159.384z" fill="#aca3bd"/></g></svg>