<?xml version="1.0" encoding="utf-8"?>
<!-- Generator: Adobe Illustrator 25.0.0, SVG Export Plug-In . SVG Version: 6.00 Build 0)  -->
<svg version="1.1" id="Layer_1" xmlns="http://www.w3.org/2000/svg" xmlns:xlink="http://www.w3.org/1999/xlink" x="0px" y="0px"
	 viewBox="0 0 68 150" style="enable-background:new 0 0 68 150;" xml:space="preserve">
<style type="text/css">
	.st0{fill:#FFFFFF;}
	.st1{fill:#008348;}
	.st2{fill:#1D428A;}
	.st3{fill:#C8102E;}
	.st4{fill:#FDB927;}
</style>
<g>
	<g>
		<path class="st0" d="M60.6,11.6L60.6,11.6L60.6,11.6c-1-4.6-7.2-8.3-11.8-8.3H17.6c-4.6,0-9.1,3.7-10.2,8.2l0,0l0,0
			c-8.9,42.1-8.9,84.8,0,126.9l0,0l0,0c1,4.5,5.6,8.2,10.2,8.2h32.8c4.6,0,9.1-3.7,10.2-8.2l0,0l0,0C69.5,96.4,69.5,53.7,60.6,11.6z
			"/>
		<g>
			<path class="st1" d="M22.3,143.2h25.4c-0.7-0.2-1.3-0.6-1.8-1.2c-2-2.1-1.3-3.2-0.7-4.9c0.6-1.7-0.6-2.4-0.8-3.8
				c-0.2-1.4,1.2-4.2,1.5-5.6c0.3-1.4,1.4-2,1.4-2l0,0c0.2-0.5-0.1-1.9-0.8-6.3c-0.3-1.8-3.5-7.8-3.7-8.8c-0.4-2.8,0.8-6.1,0.3-7.2
				c-0.2-0.4-0.6-1.4-0.6-1.6c-0.1-0.7-1-2.6-1-2.6l-0.6-1.6c0,0-0.6,0-1-0.2c-0.6-2.6-3.5-11.5-3.5-11.5c-1.1,1.1-3.9,9.6-4.8,11.3
				c0,0-0.4,0.1-0.9,0c-0.2,0.4-2.2,4.6-2.7,6.8c-1,3.5,2.4,4.1-2.7,13.1c-0.7,1.3-1.8,7.1-2.2,9.7l0.4,0.1c0.7,0.4,0.5,1,0.5,1.9
				c0,3.5,1,2.2,0.8,4.4c-0.3,2.7-1,2.1-1.3,3.3c-0.2,2.3,0.6,2.6,0,4.9C23.2,142,22.8,142.7,22.3,143.2z"/>
			<path class="st2" d="M30.4,12.2c0-0.1,0-0.1,0-0.2c0-0.1,0-0.2,0.1-0.3c0-0.1,0-0.1,0.1-0.2c0-0.1,0.1-0.2,0.1-0.2
				c0-0.1,0.1-0.2,0.1-0.2c0-0.1,0.1-0.1,0.1-0.2c0-0.1,0.1-0.2,0.1-0.3c0-0.1,0.1-0.1,0.1-0.2c0-0.1,0.1-0.2,0.1-0.3
				c0,0,0-0.1,0.1-0.1c0.1-0.1,0.1-0.2,0.2-0.3c0,0,0-0.1,0.1-0.1c0.1-0.1,0.1-0.2,0.2-0.3c0,0,0-0.1,0.1-0.1
				C31.9,9.1,31.9,9,32,8.9c0,0,0,0,0.1-0.1c0.1-0.1,0.2-0.2,0.3-0.3c0,0,0,0,0,0c0.1-0.1,0.2-0.2,0.3-0.3c0,0,0,0,0,0
				C32.8,8.1,32.9,8,33,7.9c0,0,0,0,0,0c0.1-0.1,0.2-0.2,0.3-0.3c0,0,0,0,0,0c0.1-0.1,0.2-0.2,0.4-0.3c0,0,0,0,0,0
				c0.1-0.1,0.3-0.2,0.4-0.2l0,0c0.1-0.1,0.3-0.2,0.4-0.2c0.1,0,0.2-0.1,0.2-0.1H17.6c-0.1,0-0.3,0-0.4,0c0,0,0,0-0.1,0
				c-0.1,0-0.3,0-0.4,0.1c0,0,0,0-0.1,0c-0.1,0-0.3,0.1-0.4,0.1c0,0,0,0-0.1,0c-0.1,0-0.3,0.1-0.4,0.1c0,0,0,0,0,0c0,0,0,0,0,0
				c-0.1,0-0.3,0.1-0.4,0.1c0,0,0,0-0.1,0c-0.1,0.1-0.2,0.1-0.4,0.2c0,0,0,0,0,0c-0.1,0.1-0.2,0.1-0.3,0.2c0,0,0,0-0.1,0
				c-0.1,0.1-0.2,0.1-0.4,0.2c0,0,0,0-0.1,0c-0.1,0.1-0.2,0.1-0.3,0.2c0,0,0,0,0,0c-0.1,0.1-0.2,0.2-0.3,0.3c0,0,0,0-0.1,0.1
				c-0.1,0.1-0.2,0.2-0.3,0.3c0,0,0,0,0,0c-0.1,0.1-0.2,0.2-0.3,0.3c0,0,0,0-0.1,0.1c-0.1,0.1-0.2,0.2-0.3,0.3c0,0,0,0,0,0
				c-0.1,0.1-0.2,0.2-0.2,0.3c0,0,0,0-0.1,0.1c-0.1,0.1-0.2,0.2-0.2,0.3c0,0,0,0,0,0.1c-0.1,0.1-0.1,0.2-0.2,0.3c0,0,0,0,0,0.1
				c-0.1,0.1-0.1,0.2-0.2,0.3c0,0,0,0.1,0,0.1c-0.1,0.1-0.1,0.2-0.1,0.3c0,0,0,0,0,0c0,0.1-0.1,0.2-0.1,0.4c0,0,0,0.1,0,0.1
				c0,0.1-0.1,0.2-0.1,0.4C2,53.9,2,96.1,10.8,137.7c0.7,2.9,3.7,5.4,6.6,5.5c-0.2-0.4-0.4-0.9-0.6-1.6c-0.4-1.8-0.2-3.6,0.3-4.9
				c0.3-0.8,0.7-2,0.9-3.2c0.2-1.1,0.2-2.1,0.2-2.8c0-1.5,0-3.3,0.4-3.6c0.3-0.3,0.5-0.4,0.5-0.4l0.2,0l0.4-5.6
				c0,0-0.3-7.6,0.2-11.6c0.3-2.3,2.2-5.5,2.2-5.5l0.5-4.9c0.2-2.3,0.2-4.2,0.2-4.2c-0.4-0.3-0.7-0.5-0.7-0.5s1.1-7.5,3.4-15.3
				c0.6-1.9,2.3-5.9,2.6-6.7c0.3-1,1-2.6,1.4-3.5c1.1-2.6,1.8-2.7,1.8-2.7c0.4-1,0.2-1.9,0.4-2.6c-0.3-0.2-0.6-1-0.7-3.2
				c-0.1-1.7-0.7-6.6-1-8.9c-0.3-2.7-0.5-5.7-0.2-5.9c0-0.2-0.4-0.8-0.3-1.5l-0.1-0.3c-0.2-0.8,0.2-2.3-1.2-3.1
				c-0.3-0.2-0.7-0.3-1.1-0.4c-2.6-0.7-5-2.8-6-3.8c-3.2-3.4-4.7-3.7-5.6-5.5c-0.6-1.3-1-2-1-2.8c0,0,0.1-0.3,0.2-0.4
				c0.1-0.1,0.2-0.3,0.4-0.3c1.4-0.6,2.7-2.8,6.4-4.8c2.7-1.5,4.4-2.1,5.8-2.9c0.7-0.5,1.3-1,1.7-1.3c0.4-0.3,1-1,1.4-1.2
				c0.1,0,0.2-0.1,0.3-0.1c-0.6-1.3-0.8-2.8-0.6-4.5C30.3,12.5,30.4,12.3,30.4,12.2z"/>
			<path class="st3" d="M57.2,12.3c-0.7-2.9-3.8-5.5-6.8-5.5h-1.6h-7.1c0.1,0,0.2,0,0.3,0c0,0,0,0,0,0c0.1,0,0.2,0,0.2,0.1
				c0.1,0,0.3,0.1,0.4,0.1c0,0,0,0,0,0c0.2,0.1,0.3,0.2,0.5,0.2c0,0,0,0,0,0c0,0,0.1,0,0.1,0c0,0,0,0,0.1,0c0,0,0,0,0.1,0
				c0,0,0.1,0,0.1,0c0,0,0,0,0.1,0c0,0,0.1,0,0.1,0c0,0,0,0,0.1,0c0.1,0,0.1,0,0.2,0.1c0.1,0,0.3,0.1,0.4,0.1
				c0.4,0.2,0.5,0.6,0.8,0.9c0.1,0,0.1,0.1,0.2,0.1c0.1,0.1,0.2,0.3,0.2,0.5c0.2,0.7,0.4,1.3,0.6,2c0.1,0.2,0.2,0.6,0.4,0.7
				c0.1,0.1,0.3,0.3,0.3,0.6c0,0.3-0.2,0.7-0.3,0.8c0.4,1.1,1.3,3.4,1.3,3.4s0.8,1.8,1.4,2.9c1.6,3.3,2,4.7,1.9,8.5
				c-0.1,3,2,3.6,1.7,7.7c0,0.5,1.7,3.1,0.6,6.3c-0.4,1.3-1,2.8-1.3,3.6c0,1.6-0.4,3-0.7,4.2c0,0,0,0.1,0.1,0.1
				c0.1,0.8-0.4,3.4-0.6,4c-0.2,0.7-0.9,2.8-1.2,3.8c-0.1,0.4-0.6,1.8-1,3c-0.3,1.6-0.6,2.9-1,3.6c-0.1,0.1-0.5,0.7-0.5,0.8
				c0,0.2,0.2,1.4,0.4,2.3c0.8,1.1,2.2,4.3,2.6,8.2c0.3,3.7,1.3,6.2,0.5,14.1c-0.1,2.6-0.1,4.6-0.2,5.3c-0.4,0.4-1,0.5-1,0.5
				l-0.1,1.1l0,0.6l0,3c0.4,2.2,2,6.4,2,8.9c0,1.7,0.3,16.3,0.3,17.1l0,0c0,0,1.1,1,0.7,2c-0.4,1,0.4,3-0.3,6.5
				c-0.7,3.5,0.9,3.7,0.3,6.5c-0.2,0.9-0.8,1.6-1.5,1.9c2.8-0.2,5.8-2.7,6.4-5.4C66,96.1,66,53.9,57.2,12.3z"/>
			<path class="st4" d="M44.2,20.5L44,19.2c-1.3,1.4-3,2.4-5,2.6c-0.4,0.3-1.4,0.5-2.1,0.5c-1.4,0-2.3-0.1-2.6-0.2
				c-0.3,0-0.6-0.1-0.8-0.2c-0.5-0.1-0.8-0.4-1.1-0.5c-0.3-0.1-1-0.3-1.7,0c-0.9,0.5-3.9,3.9-5.2,5.5c-0.9,1.2-2.8,2.4-3.6,3
				c0.2,0,0.3,0,0.5,0.1c0,0,0.1,0,0.1,0c0.1,0,0.2,0,0.3,0.1c0.1,0,0.1,0,0.2,0c0.1,0,0.2,0,0.3,0.1c0.1,0,0.1,0,0.2,0
				c0.1,0,0.2,0,0.2,0.1c0.1,0,0.1,0,0.2,0c0.1,0,0.2,0,0.2,0.1c0.1,0,0.1,0,0.2,0.1c0.1,0,0.2,0.1,0.2,0.1c0,0,0.1,0,0.1,0.1
				c0.1,0,0.1,0.1,0.2,0.1c0,0,0.1,0,0.1,0.1c0.1,0,0.1,0.1,0.2,0.1c0,0,0.1,0,0.1,0.1c0.1,0,0.2,0.1,0.2,0.1c0,0,0.1,0,0.1,0
				c0.1,0.1,0.2,0.1,0.3,0.2c0,0,0,0,0,0c0.2,0.1,0.4,0.2,0.6,0.4c0,0,0,0,0,0c0.1,0.1,0.2,0.1,0.2,0.2c0,0,0,0,0.1,0
				c0.1,0,0.1,0.1,0.2,0.1c0,0,0,0,0.1,0.1c0.1,0,0.1,0.1,0.2,0.1c0,0,0,0,0.1,0.1c0.1,0,0.1,0.1,0.2,0.1c0,0,0,0,0.1,0.1
				c0.1,0,0.1,0.1,0.2,0.1c0,0,0,0,0,0c0.1,0,0.1,0.1,0.1,0.1c0,0,0,0,0,0c0.1,0.1,0.1,0.1,0.1,0.2c0,0,0,0,0,0
				c0.1,0.1,0.1,0.1,0.2,0.2c0,0,0,0,0,0c0.2,0.2,0.3,0.4,0.4,0.5c0,0,0,0,0,0c0,0,0.1,0.1,0.1,0.1c0,0,0,0,0,0c0,0,0,0.1,0.1,0.1
				c0,0,0,0,0,0c0,0,0,0.1,0.1,0.1c0,0,0,0,0,0c0,0,0,0,0,0.1c0,0,0,0,0,0c0,0,0,0,0,0c0,0,0,0,0,0c0,0,0,0,0,0c0,0,0,0,0,0
				c0,0.1,0,0.1,0,0.1s0,0,0.1,0c0,0,0.1,0,0.1,0c0,0,0,0,0,0c0.1,0,0.2,0,0.4,0c0,0,0,0,0,0c0.1,0,0.1,0,0.2,0c0,0,0,0,0.1,0
				c0.1,0,0.2,0,0.3,0c0,0,0,0,0.1,0c0.1,0,0.2,0,0.3,0c0,0,0,0,0.1,0c0.1,0,0.2,0,0.3,0c0,0,0,0,0,0c0.1,0,0.2,0,0.3,0
				c0,0,0,0,0.1,0c0.1,0,0.2,0,0.3,0c0,0,0,0,0.1,0c0.1,0,0.2,0,0.3,0c0,0,0,0,0.1,0c0.1,0,0.2,0,0.3,0c0,0,0,0,0,0
				c0.1,0,0.2,0,0.3,0c0,0,0,0,0,0c0.1,0,0.2,0,0.3,0.1c0,0,0,0,0.1,0c0.1,0,0.2,0,0.3,0.1c0,0,0,0,0,0c0.1,0,0.2,0,0.3,0.1
				c0,0,0,0,0,0c0.1,0,0.2,0.1,0.2,0.1c1,0.4,2.1,1.2,2.5,1.6l0.5,0.4c0.2,0,0.4,0,0.5-0.1c0.1-0.3,0.3-1.2,0.2-1.7
				c-0.6-0.2-0.7-2.1-0.6-3.4c0.1-0.7,0.5-1.6,0.8-1.9c0.3-0.3-0.2-1.4,0.2-1.8c0.3-0.4,1.9-3.3,5.2-2.7c0.6,0.1,1.1,0.3,1.5,0.5
				C44.5,24.8,44.2,22.9,44.2,20.5z"/>
		</g>
	</g>
	<g>
		<polygon class="st0" points="17.8,103 13.4,103.6 13.4,85.1 10.6,85.1 10.6,103.8 10.6,105.7 10.6,105.7 17.8,105.7 		"/>
		<path class="st0" d="M15.6,50.1c2.4-1.2,2.3-3.2,2.3-4.2v-6.1h-7.4v20.6h7.4v-6.1C17.9,53.3,18,51.3,15.6,50.1 M15.1,58h-1.9v-6.6
			c0,0,1.9,0.9,1.9,3V58z M15.1,45.9c0,2-1.9,3-1.9,3v-6.6h1.9V45.9z"/>
		<path class="st0" d="M16.2,62.5h-3.9l-2,20.6l2.8,0l0.1-2.1l2-0.8l0.1,2.9h2.9L16.2,62.5z M13.3,78.4l0.9-13.5L15,78.2L13.3,78.4z
			"/>
	</g>
</g>
</svg>
