<svg viewBox="0 0 18 40" width="18" height="40" xmlns="http://www.w3.org/2000/svg" xmlns:xlink="http://www.w3.org/1999/xlink"><mask id="a" fill="#fff"><path d="m.004 0h17.582v39.996h-17.582z" fill="#fff" fill-rule="evenodd"/></mask><g fill="none" fill-rule="evenodd"><path d="m17.586 3.89-3.428-3.89h-10.73l-3.428 3.89v32.22l3.428 3.89h10.73l3.428-3.89z" fill="#fff" mask="url(#a)"/><path d="m3.937 38.605-2.708-3.072v-1.572l4.92-13.306h2.014v17.95zm.739-19.26h-3.447v-8.985l3.447 8.986zm-3.447 1.31h3.524l-3.523 9.529v-9.53zm2.708-19.26h4.226v17.95h-2.085l-4.849-12.642v-2.236l2.708-3.073z" fill="#1d428a"/><path d="m9.423 38.605v-17.95h2.014l4.92 13.306v1.572l-2.708 3.072zm6.934-28.246v8.986h-3.447zm0 19.825-3.524-9.53h3.524zm0-25.717v2.236l-4.849 12.642h-2.085v-17.95h4.226z" fill="#c8102e"/></g></svg>