<?xml version="1.0" encoding="utf-8"?>
<!-- Generator: Adobe Illustrator 25.0.0, SVG Export Plug-In . SVG Version: 6.00 Build 0)  -->
<svg version="1.1" id="Layer_1" xmlns="http://www.w3.org/2000/svg" xmlns:xlink="http://www.w3.org/1999/xlink" x="0px" y="0px"
	 viewBox="0 0 233.5 113.1" style="enable-background:new 0 0 233.5 113.1;" xml:space="preserve">
<style type="text/css">
	.st0{fill:#FA4D00;}
</style>
<path class="st0" d="M87.9,47.9h9.9l-9.7,30.4H75.7l-5.9-21.4l-6.2,21.4H51.4l-9.7-30.4h9.9l5.9,21.4l6-21.4h12.4l6,21.4L87.9,47.9z
	 M43.9,12.9c0.3-1.1,1.3-2.6,1.6-3.8c0.3-1,0.2-1.7-0.2-1.9c0.3-3.3-2-6.4-5.3-7.1c-3.6-0.7-7.1,1.6-7.9,5.2
	c-0.7,3.6,1.6,7.1,5.2,7.9c0.5,0.1,1,0.1,1.5,0.1c0.3,0.1,0.5,0.3,0.6,0.4c0.3,0.3,0.5,1.4,0.2,1.9c-0.2,0.5-1.6,2-3.2,3.7
	c-1.6,1.7-2.1,1.9-3.5,3.6c-0.7,0.8-0.9,1.8-0.9,1.8s-1.3,0.7-2.2,1.9c-0.9,1.3-2.1,3.7-2.1,3.7s-1,0.6-1.6,1
	c-0.5,0.5-0.9,0.8-1.7,1.8c0-0.9,0.3-1.3,0.9-1.7c0.4-0.3,1-1.8,1.1-3.6c0.8-0.4,1.4-1.3,1.4-2.3c0-1.4-1.2-2.6-2.6-2.6
	c-0.6,0-1.1,0.2-1.5,0.5c-1-0.5-2.3-0.7-3.8-0.4c-0.5,0.1-1,0.3-1.1,0.7c-0.3,0.1-0.8,0.3-1.4,1.2c-0.7,1-0.4,1.7-0.5,2.1
	c-0.1,0.3-1.2,0.9-0.7,3.2c0.2,0.9,0.1,1.6,0.2,1.9c0.1,0.4,0.2,0.6,0.6,0.7c0.2,0.1,0.5,0.2,0.7,0.3c0.4,0.1,0.5,0.2,0.6,0.6
	c0,0.1,0,0.2,0,0.2c0,0.2,0,0.5,0,0.6c0,0.1-0.1,0.3-0.3,0.3l-2.5,0.1c-1.5-0.1-2.3,0.4-2.3,0.4s-1.5,0.1-2.5,0.7
	c-1,0.6-2.3,2.2-2.6,3.6c-0.2,0.6-0.3,1-0.6,1.5c-0.2,0.3-1.1,0.9-1.8,1.6c-0.4-1.5-1-3.3-1-4.6c0-0.1,0-0.3,0-0.3
	c0-0.4,0-0.8,0.2-1.2c0.4-0.6,0.7-1.3,0.6-2.1c0-0.5,0.1-1.1,0.2-1.6c0.1-0.4,0-0.7,0.2-1c0.1-0.2,0.3-0.5,0.3-0.8
	c-0.1-0.3-0.5-0.3-0.7-0.2c-0.5,0.2-0.6,0.7-0.8,1.2c-0.1,0.3-0.1,0.7-0.3,0.8c-0.2,0.1-0.5,0.1-0.7-0.1c-0.2-0.3-0.3-0.5-0.5-0.8
	c-0.1-0.3-0.7-2.3-1.2-3.3c-0.2-0.2-0.3-0.5-0.6-0.6c-0.2-0.1-0.5,0.1-0.4,0.3c0.2,0.6,0.5,1.2,0.7,1.8c-0.2-0.4-0.5-0.8-0.7-1.1
	c-0.2-0.2-0.4-0.5-0.7-0.6c-0.2-0.1-0.4,0-0.5,0.2c0,0.1,0.1,0.3,0.1,0.4c0.4,0.5,0.8,1.1,1.1,1.8c-0.2-0.2-0.4-0.4-0.7-0.4
	c-0.1,0-0.3,0-0.4,0.1c0,0.1,0,0.3,0.1,0.4c0.3,0.4,0.7,0.8,0.9,1.2c0.2,0.3,0.4,0.7,0.6,1C1.5,33,1.2,33,1.2,33.3
	C1.4,33.7,1.9,34,2,34.5c0.4,1,0.3,2.1,0.2,3.3C2.1,39.1,2.3,42.5,2,44c-0.5,2.4-0.4,3.3,0.2,6c0.3,1.6,1.9,1.6,3.1,0.8
	c2-1.3,4.1-4.3,4.6-4.9c0.4-0.5,0.7-1.3,1-1.2c0.7,0.8,1.2,4.1,0.6,7c-0.1,0.6-0.5,1.7-0.4,2c0.1,0.4,0.4,0.5,0.4,0.6
	c-0.1,2.2-1.5,2.6-2.1,4.9c-0.5,2.3-0.3,3.9,0.1,6.2c0.5,2.3,1.5,4.6,2.4,6.3c0.9,1.7,1.1,3,1.1,3l0.8,0c0,0,1.2,4.9,3.7,8.7
	c7.3,11,9.9,15.9,10.4,17c0.5,1-0.2,1-0.2,1.5c0,0.5,0.4,1,1.6,1.8c1.3,0.8,2.3,3.6,2.8,5.1c0.4,1.5,1.5,4.4,3.7,4.1
	c2.3-0.3,2.2-3.2,1.8-5c-0.5-1.8-2.3-2.7-2.6-3.9c-0.3-1.1-1.5-3-1.6-5.3c0-0.3,0-0.6,0.1-1c0.1-1.3,0.9-3,0.8-4
	c-0.1-1-2.7-2.8-3.3-3.9c-0.6-1.1-1-3.4-1.2-3.5c-0.3-0.1-0.6-0.1-0.6-0.1s-0.4-7.6-1.4-10.7c-0.8-2.3-2.8-4.3-2.8-4.3
	s0.9-1.7,2.1-6.1c1.4-5.3-0.7-7.8-1.3-10.8c-0.5-2.4,0.1-6,1.6-9.5c0.6-1.4,1.7-4.9,1.8-6.7c0-0.8,0.5-1.4,1.3-2.5
	c0.8-1.1,1.5-2.3,1.8-3.3c0.3-1,1.1-2,2.3-3.7c0.6-0.9,0.9-1.7,0.9-1.7s2.2-2.2,3.8-4.4c1.9-2.5,2.2-4,2.3-4.5
	c0.1-0.5,0.9-1.1,1.3-2C43.3,15.4,43.6,14,43.9,12.9z M187.3,69.8c0,6-5,8.4-12.6,8.4h-26.7V47.8h24.1c8.3,0,12.9,2.2,12.9,8
	c0,3.5-2,5.5-4.4,6.4c-0.1,0-0.2,0.1-0.2,0.2c0,0.1,0.1,0.2,0.2,0.2C184.4,63.1,187.3,65.5,187.3,69.8z M157,59.8h15.2
	c2.6,0,3.6-0.8,3.6-2.1c0-1.5-1.1-2.2-3.6-2.2H157V59.8z M178,68.2c0-1.2-0.9-2-3.3-2H157v4.2h17.7C177.2,70.5,178,69.6,178,68.2z
	 M233.5,78.2h-10.7l-3.5-6.5h-17l-3.4,6.5h-10.7l16.4-30.4h12.3L233.5,78.2z M215.5,64.3l-4.8-9.1l-4.7,9.1H215.5z M131.4,68.4
	l-17.2-20.5h-12.8v30.4h9V57.7l17.1,20.5h12.8V47.9h-9.1V68.4z"/>
</svg>
